<svg xmlns="http://www.w3.org/2000/svg"><symbol id="hexes" viewBox="0 0 256 256"><path fill="#844ca5" d="M208.1 145.8l-32.2-57.9-45.2-81.6-47.6 79.3L34.8 166l1 1.8 43.3 79.6 93.4 2.3 48.1-78.7.6-1.1zm2.3 25.1L167.6 241l-83.2-2-38.6-70.9-.9-1.6 43-71.6 42.5-70.7 40.3 72.7 28.6 51.6L211 170z"/><path fill="#fff" d="M211 170l-.6.9-42.8 70.1-83.2-2-38.6-70.9-.9-1.6 43-71.6 42.5-70.7 40.3 72.7 28.6 51.6L211 170z"/><path fill="#2fbc5e" d="M211 170l-55.8-1.2-24.8-144.6-30.7 143.5-54.8-1.2 48.7 29.6-9.2 42.9 42.1-22.9 41.1 24.9-7.4-43.3zm-57.6 23.3l-26.8 14.3-25.3-15.4 3.9-17.9 45.1.9zM130.1 57.7l19 111-42.6-.9zM70.8 173.6l27.5.6-3.1 14.3zm23.6 51.1l5.3-24.9 19.4 11.8zm64.8 2.8L133.9 212l20.7-11.3zm-2.9-52.1l29.6.6-27 14.3z"/></symbol><symbol id="incantations" viewBox="0 0 256 256"><path fill="#51775d" d="M189.6 69.3l-.8 4-5.1 15.2a3.7 3.7 0 0 1-3.8 2.6 1.1 1.1 0 0 1-1.1-1.2c.2-3.8.7-16.2.6-16.4l-.6-.9-.6-1.1-35.8 5.2a5.8 5.8 0 0 1-1.7.6h-1.8l-1.2-.2-18.4-3.1-19.6-3.1-4.4-.7a9.9 9.9 0 0 1-4.5-3.5 8.6 8.6 0 0 1-1-1.6A10.5 10.5 0 0 1 93.6 52a10.4 10.4 0 0 1 6.3-1.5 10.2 10.2 0 0 1 8 4.8l2.2.6 4.4 1.2 25.4 6.8 43.6.5h1a5.8 5.8 0 0 1 5 4.2z"/><path fill="#2fbc5e" stroke="#844ca5" stroke-miterlimit="10" d="M111 44.5l-.7 8.7a30.7 30.7 0 0 0-8-4.3 19.6 19.6 0 0 0-8.3-1.3l.9-12.2a17.7 17.7 0 0 0 8.2 2.7h1.4a4.1 4.1 0 0 0-1.1 3.2v.5a5.5 5.5 0 0 0 1.2 2.4 4.7 4.7 0 0 0 1.2.9l1.2.4h1.6a3.8 3.8 0 0 0 2.4-1z"/><path fill="#fff" stroke="#000" stroke-miterlimit="10" d="M99.7 70.9h-1.4a9.4 9.4 0 0 1-3-.7z"/><path fill="none" stroke="#000" stroke-miterlimit="10" d="M99.7 70.9h-1.4a9.4 9.4 0 0 1-3-.7z"/><path fill="#2fbc5e" stroke="#844ca5" stroke-miterlimit="10" d="M122.9 32.5a6.7 6.7 0 0 1-2.6.2v1.1h-.8a4.5 4.5 0 0 0-4 5 4.1 4.1 0 0 0 2.4 3.5l1.2.5h.5l-.3 3.9-4.8-.4c-1.6-.1-3.1-.4-4.7-.6s-5.9-.5-6.3-4.1c-.1-1.3.2-3.5-.3-3.5a17.7 17.7 0 0 1-8.2-2.7 18 18 0 0 1-8-16.3 17.7 17.7 0 0 1 35.2 2.8 18.9 18.9 0 0 1-1.1 4.7 3.5 3.5 0 0 1 1 2.2c0 1.2 1.6 2.9.8 3.7z"/><path fill="#51775d" d="M177.5 234.9l-19.8 6.9a4.9 4.9 0 0 1-6.4-4.4l-1.1-6c-1.2-.8-3.6-6.3-3.6-6.3l-23.4-48.9-15-19.2 2.5-15.9 2-13.6h-.6a14.3 14.3 0 0 0 .9-4.1 10.3 10.3 0 0 0 .1-1.7h.1l2.3 4.2 23 41.2 18.8 54.4 1.9 6.7 14.9 1.8a5.1 5.1 0 0 1 4.2 3.4 1.3 1.3 0 0 1-.8 1.5z"/><path fill="none" stroke="#000" stroke-miterlimit="10" d="M184.8 64.4v.2c-.1 0-.1-.1-.1-.2zM79.9 71.6a51.3 51.3 0 0 0 .3 7.5 31 31 0 0 1-.3-7.5z"/><path fill="#2fbc5e" stroke="#844ca5" stroke-miterlimit="10" d="M106.8 250.9a2.2 2.2 0 0 1-2.4 2.1l-22.2-1.7a3.5 3.5 0 0 1-3.1-4.5l2.4-8.2 2.5-56-5.8-43.8a20.4 20.4 0 0 1-2-7.7 34 34 0 0 1 .3-4.5c1.1-5.8 6.9-21.1 6.6-25.7S81 87.1 80.2 79.1a51.3 51.3 0 0 1-.3-7.5v-.3a18 18 0 0 0 .2-2.2v-.4a3.1 3.1 0 0 1 .1-1 1.1 1.1 0 0 1 .1-.5v-.5a2 2 0 0 0 .1-.7 2 2 0 0 0 .1-.7c.1-.2.1-.5.2-.7a1.3 1.3 0 0 1 .1-.6 2.9 2.9 0 0 1 .2-.9.9.9 0 0 1 .1-.5c0-.2.1-.4.1-.6s.1-.4.2-.6.1-.5.1-.7.1-.4.2-.5a1.4 1.4 0 0 1 .2-.6c0-.2 0-.3.1-.4a8.3 8.3 0 0 1 .4-1.2c.1-.2.1-.4.2-.6l.6-1.4a3.6 3.6 0 0 0 .4-.9 31.8 31.8 0 0 1 1.7-2.7l.3-.3c0-.1.1-.1.1-.2l.3-.3.3-.4.3-.2a5.2 5.2 0 0 1 1.1-1l.2-.2.9-.5.2-.2a7.5 7.5 0 0 1 1.8-.8h.3c0-.1.1-.1.2-.1h.2l1.2-.2h3.6a22.5 22.5 0 0 1 5.9 1.3l.9.4h.2l.5.2a31.7 31.7 0 0 1 4.1 2.1l.5.3.5.3.4.3.9.7.6.4a.1.1 0 0 1 .1.1l.5.4.5.4.5.4c0 .1 0 .1.1.1l.4.4.6.6.4.6c.2.1.3.3.5.5 3.5 4.2 5.4 9.8 4.8 16.8v.7a45 45 0 0 1-.8 5.1c-1.6 8.5-4.9 20.4-5.1 23.6s-.4 18.6-.3 20.6a4.8 4.8 0 0 1 0 1.7l-.3 4.2-2.1 13.5-2.4 15.9-3.8 25.1-11.9 55 11.9 7a4.7 4.7 0 0 1 2.4 4.2z"/><path fill="#2fbc5e" stroke="#844ca5" stroke-miterlimit="10" d="M188.2 43.8l.3 4.4-1.4 15.7a3 3 0 0 1-1 2 2 2 0 0 1-3.2-1c-1.1-4.9-3.2-13.9-3.4-14a4.6 4.6 0 0 1-.7-.7 5.8 5.8 0 0 0-1-.9l-33 14.6-1.5 1a5.8 5.8 0 0 1-1.7.6h-1.2l-18.5 2-19.8 2.1-4.5.5a10.1 10.1 0 0 1-5.2-2.2l-1.4-1a11.9 11.9 0 0 1-2.3-4.8 10.5 10.5 0 0 1 2.5-8.9 10.1 10.1 0 0 1 5.6-3.2 10.4 10.4 0 0 1 9 2.6h6.8l26.3-.3L181.1 41l.9-.2a5.8 5.8 0 0 1 6.2 3zM116 24.3a1.1 1.1 0 0 1-1.4.6 1 1 0 0 1-.6-1.2h2.1a.9.9 0 0 1-.1.6zm-2-.6l-2 .2m5.1-.4l-1 .1"/></symbol><symbol id="potions" viewBox="0 0 256 256"><path fill="#fff" d="M92.9 185.9a4.2 4.2 0 0 1-1.5.4z"/><path fill="#fff" stroke="#000" stroke-miterlimit="10" d="M180.8 201.4A54 54 0 1 1 85 167.2a54.6 54.6 0 0 1 9.9-9.3c1.9-1.4 3.8-2.6 5.8-3.8s7-3.2 9.9-5.6a20 20 0 0 0 3.6-4.1c2.8-4.5 2.8-10.2 2.8-15.4v-25.7a11.5 11.5 0 0 0-.1-1.8 7.1 7.1 0 0 0-6.8-7.1 21.8 21.8 0 0 1-4.4-1.6 6.1 6.1 0 0 1-3.5-5.6 6 6 0 0 1 1.1-3.4.6.6 0 0 0-.1.4c0 1.2 1.7 2.3 4.4 3.3l6.6 1.5a104.6 104.6 0 0 0 14.6 1 91.3 91.3 0 0 0 14.8-1.1 36.1 36.1 0 0 0 6.8-1.6c2.5-.9 4-2 4-3.1a2.5 2.5 0 0 0-.2-.7 6.2 6.2 0 0 1 .6 7.5 5 5 0 0 1-1.2 1.3 10.4 10.4 0 0 1-2.8 1.4l-2.8.8a7.1 7.1 0 0 0-5.6 7v36.1a18.1 18.1 0 0 0 3.6 10.7 15.2 15.2 0 0 0 4 4c2.5 1.8 5.3 3.2 7.9 4.9a58.6 58.6 0 0 1 7.1 6.1 53.1 53.1 0 0 1 10.8 15.3 54.5 54.5 0 0 1 5 22.8z"/><path fill="#fff" d="M153.6 92.3a6.2 6.2 0 0 1-2.8 1.4 10.4 10.4 0 0 0 2.8-1.4zm1.2-1.3a2.9 2.9 0 0 1-1.2 1.3 5 5 0 0 0 1.2-1.3z"/><path fill="#fff" stroke="#000" stroke-miterlimit="10" d="M154.2 83.5c-1.4-2.8-12.3-5.1-25.4-5.1-10.2 0-18.9 1.4-23.1 3.3a6.1 6.1 0 0 0-2.4 2.1.6.6 0 0 0-.1.4c0 1.2 1.7 2.3 4.4 3.3l6.6 1.5a104.6 104.6 0 0 0 14.6 1 91.3 91.3 0 0 0 14.8-1.1 36.1 36.1 0 0 0 6.8-1.6c2.5-.9 4-2 4-3.1a2.5 2.5 0 0 0-.2-.7zm-10.3 2v.3h-.5c-2.8 1-8.2 1.6-14.5 1.6s-11.3-.6-14.2-1.5h-.3c-1.3-.4-2.1-1-2.1-1.5s.3-.6.8-.9c2.1-1.3 8.4-2.2 15.8-2.2s14.8 1.1 16.2 2.5a.9.9 0 0 1 .3.6c-.1.3-.6.7-1.5 1.1z"/><path fill="#844ca5" d="M145.3 84.2c0 .5-.5.9-1.4 1.3l-.6.2c-2.8 1-8.2 1.6-14.5 1.6s-11.3-.6-14.2-1.5h-.3c-1.3-.4-2.1-1-2.1-1.5s.3-.6.8-.9c2.1-1.3 8.4-2.2 15.8-2.2s14.8 1.1 16.2 2.5a.9.9 0 0 1 .3.5zm30.2 112.2l-2.4.2a11.5 11.5 0 0 1-9.8-5.5 13.1 13.1 0 0 1-1.2-2.7 3.5 3.5 0 0 0-.5-.8 1.7 1.7 0 0 1 .1.7 6.9 6.9 0 0 1-6.9 6.8 6.8 6.8 0 0 1-6.8-6.8 6.6 6.6 0 0 1 2.4-5.2 11.3 11.3 0 0 0-9.4 11.2 10.9 10.9 0 0 0 .3 2.6 18.8 18.8 0 0 1 3.1 10.2 21.2 21.2 0 0 1-.5 4.4 18.2 18.2 0 0 1-33.5 4.5 18.2 18.2 0 0 1-13.8 6.3 18.4 18.4 0 0 1-5.2-36h-.9a6.9 6.9 0 0 1-6.9-6.9c0-.3.1-.7.1-1a39.9 39.9 0 0 1 2.7-4.4 47.3 47.3 0 0 1 13.7-13.4 51.3 51.3 0 0 1 8.7-4.5c2.9-1.2 6.3-1.7 7.9-4.8.8-1.4.9-3.2 1.5-4.7a12.4 12.4 0 0 1 2.4-3.7 11.4 11.4 0 0 1 8.2-3.5 11.2 11.2 0 0 1 10.1 6.4c1 2 .8 4.2 1.6 6.1s3.7 3.5 6 4.7a53.7 53.7 0 0 1 8.1 4.5A48.9 48.9 0 0 1 168 175a47.4 47.4 0 0 1 7.2 19.3z"/><path fill="#2fbc5e" d="M175.8 200.8v.6a48.9 48.9 0 1 1-92.1-22.9c0 .3-.1.7-.1 1a6.9 6.9 0 0 0 6.9 6.9h.9a4.2 4.2 0 0 0 1.5-.4 22.2 22.2 0 0 1 3.7-.3 18.4 18.4 0 0 1 4.7.6h.1c.1 0 .2 0 .2.1h.1l1.6.2a6.5 6.5 0 0 0 3.7-1.1l1.1-.9a7 7 0 0 1 3.8-1.1 6.8 6.8 0 0 1 5.2 2.4 3.6 3.6 0 0 0 .7 1 6.6 6.6 0 0 0 5.2 2.4 5.2 5.2 0 0 0 1.8-.2h1.4a17.2 17.2 0 0 1 6.8 1.3 9.8 9.8 0 0 0 1.8.8 6.3 6.3 0 0 0 1.9.3 7.1 7.1 0 0 0 5.3-2.5 8.6 8.6 0 0 0 .7-1 18.4 18.4 0 0 1 14.7-7.4 20.8 20.8 0 0 1 5 .7 18.4 18.4 0 0 1 12.8 13.1 11.7 11.7 0 0 1 .5 2 24.5 24.5 0 0 1 .2 2.7c0 .5-.1 1.1-.1 1.7z"/><circle cx="144.8" cy="18.9" r="18.2" fill="#2fbc5e"/><circle cx="134.1" cy="77.3" r="6.8" fill="#2fbc5e"/><path fill="#2fbc5e" d="M128.5 52.7a11.5 11.5 0 0 1-8.8 11.1h-.2a9.9 9.9 0 0 1-2.4.3 11.5 11.5 0 0 1-9.8-5.5 13.9 13.9 0 0 1-1.2-2.8 12 12 0 0 1 .3-7.1 11.3 11.3 0 0 1 5.6-6.2 11 11 0 0 1 5.1-1.2 11.4 11.4 0 0 1 11.4 11.4z"/><path fill="#fff" d="M114.6 181.2a11.3 11.3 0 0 1-8.8 11.1h-.2a9.3 9.3 0 0 1-2.4.2 11.3 11.3 0 0 1-9.7-5.5 6.6 6.6 0 0 1-1.2-2.7 11.3 11.3 0 0 1-.5-3.2 12.3 12.3 0 0 1 .7-3.9 11.6 11.6 0 0 1 5.6-6.3 12.7 12.7 0 0 1 5.1-1.2 11.4 11.4 0 0 1 11.4 11.5z" opacity=".6"/><path fill="#2fbc5e" d="M130 162.8a7 7 0 0 1-2 5l-1.2.9a7 7 0 0 1-3.8 1.1 4.1 4.1 0 0 1-1.6-.2h-.4a7 7 0 0 1-4.6-4.3 6.1 6.1 0 0 1-.4-2.4 7 7 0 0 1 .5-2.5 6.8 6.8 0 0 1 6.5-4.5 7 7 0 0 1 7 6.9zm11.2 16.1a4.2 4.2 0 0 1-2.6 3.8l-1 .2h-.5a4.2 4.2 0 0 1-4.1-4.1c0-.2.1-.4.1-.6a3.7 3.7 0 0 1 1.6-2.7 4.1 4.1 0 0 1 2.4-.8 4.1 4.1 0 0 1 3.9 2.7 5.9 5.9 0 0 1 .2 1.5z"/><path fill="#fff" d="M148.2 241l-1.6.9a41.7 41.7 0 0 1-58.4-54.5 12.9 12.9 0 0 0 .4 1.9 11.1 11.1 0 0 0 1.2 2.7 11.3 11.3 0 0 0 9.7 5.5l2.5-.2a33.7 33.7 0 0 0 46.2 43.7z" opacity=".6"/></symbol><symbol id="curses" viewBox="0 0 256 256"><circle cx="223.8" cy="182.9" r="6.2" fill="#2fbc5e" stroke="#844ca5" stroke-miterlimit="10"/><path fill="#2fbc5e" stroke="#844ca5" stroke-miterlimit="10" d="M253.9 84.3L232.4 163a6.2 6.2 0 0 1-12.4-1.4l1.8-80.9a15.9 15.9 0 0 1 .8-6.8 16.5 16.5 0 1 1 31.3 10.4zm-82.8 50.1a34.7 34.7 0 1 0 0 69.4 34.2 34.2 0 0 0 20.8-6.9h-20.2a27.9 27.9 0 1 1 28-27.9c0 .7-.1 1.4-.1 2.1a27.5 27.5 0 0 1-3.2 11v.2l-.2.4c-.1.1-.2.3-.4.4a2.4 2.4 0 0 1-1.2.7h-.7l-.6-.2a2.1 2.1 0 0 1-1.3-1.7h-.1v-30.3h-7.1v4.3a17.8 17.8 0 0 0-13.1-5.6 18.3 18.3 0 1 0 13.1 31s.2-.3.3-.2a9.3 9.3 0 0 0 6.8 7.1c0 .1 0 .1.1.1a9.4 9.4 0 0 0 4.1.1 9.7 9.7 0 0 0 6.3-4.2c.4-1 .9-2 1.2-3a32.5 32.5 0 0 0 2.2-12.1 34.7 34.7 0 0 0-34.7-34.7zm2.8 46.9a12.9 12.9 0 1 1 10.6-14.9 12.9 12.9 0 0 1-10.6 14.9zM105 108.6a8.3 8.3 0 0 1-15.1 5.3l-61.7 73.4a7.9 7.9 0 0 1 5.3 7 8.1 8.1 0 0 1-7.5 8.9 8.2 8.2 0 0 1-9-7.5 9.2 9.2 0 0 1 1.3-5.2l.3-.4.8-.9-.8.9-.4.4a7.8 7.8 0 0 1-4.8 2 8.2 8.2 0 1 1-1.4-16.4 8 8 0 0 1 7.3 3.2l61.6-73.2a8.1 8.1 0 0 1-4.9-6.8 8.3 8.3 0 1 1 16.5-1.4 8 8 0 0 1-1.6 5.6 7.3 7.3 0 0 0-.8.9l.8-.9a8 8 0 0 1 5.2-2.5 8.3 8.3 0 0 1 8.9 7.6z"/><path fill="#2fbc5e" stroke="#844ca5" stroke-miterlimit="10" d="M106.2 169.9a8.3 8.3 0 0 0-6.8 5l-73.9-60.6a8.5 8.5 0 0 0 3.1-7.4 8.2 8.2 0 1 0-16.4 1.6 7.3 7.3 0 0 0 2.1 4.8l.4.4.9.8a7.3 7.3 0 0 1-.9-.8l-.5-.3a8.3 8.3 0 0 0-12.6 7.9 8.4 8.4 0 0 0 9.1 7.4 8.3 8.3 0 0 0 6.9-5.5L91.8 184a8.3 8.3 0 1 0 12.9 6 8 8 0 0 0-2.5-5.1l-.9-.8.9.8a8.6 8.6 0 0 0 5.7 1.5 8.4 8.4 0 0 0 7.4-9.1 8.3 8.3 0 0 0-9.1-7.4zm-4.9 14.2z"/><path fill="#2fbc5e" stroke="#844ca5" stroke-miterlimit="10" d="M85.4 143.7a30.9 30.9 0 0 1-14.8 29.5l1.6 16-26.2 2.6-1.6-16a30.8 30.8 0 1 1 41-32.1z"/><path fill="#2fbc5e" stroke="#844ca5" stroke-miterlimit="10" d="M73.2 190.1a3.6 3.6 0 0 1-2 3.9l-.9.3a3.4 3.4 0 0 1-2.9-.8l-.5-.4a4.5 4.5 0 0 1-.8-1.7 3.6 3.6 0 0 1 2.9-4.1 3.6 3.6 0 0 1 4.2 2.8z"/><path fill="#2fbc5e" stroke="#844ca5" stroke-miterlimit="10" d="M66.5 191.2a3.6 3.6 0 0 1-2 3.8l-.9.3a3.3 3.3 0 0 1-2.9-.8 1 1 0 0 1-.5-.4 3.4 3.4 0 0 1-.8-1.7 3.6 3.6 0 0 1 7.1-1.2z"/><path fill="#2fbc5e" stroke="#844ca5" stroke-miterlimit="10" d="M59.5 191.8a3.5 3.5 0 0 1-2 3.8 1.6 1.6 0 0 1-.9.3 3.7 3.7 0 0 1-2.9-.7l-.5-.5a4.4 4.4 0 0 1-.7-1.7 3.5 3.5 0 0 1 2.8-4.1 3.6 3.6 0 0 1 4.2 2.9z"/><path fill="#2fbc5e" stroke="#844ca5" stroke-miterlimit="10" d="M53 192.4a3.4 3.4 0 0 1-2 3.8 1.2 1.2 0 0 1-.9.3 3.8 3.8 0 0 1-2.9-.7l-.4-.5a3.4 3.4 0 0 1-.8-1.7 3.6 3.6 0 0 1 7-1.2z"/><path fill="#844ca5" d="M35.3 135.8a10.6 10.6 0 0 1 14 4.7 10.4 10.4 0 0 1 .1 9.1 9.8 9.8 0 0 0-4.5-4.5 5 5 0 0 0-2.9-4.5 5 5 0 0 0-6.6 2.6 5.4 5.4 0 0 0-.5 2.1 10.8 10.8 0 0 0-4.3 4.7 10.5 10.5 0 0 1 4.7-14.2z"/><path fill="#fff" stroke="#844ca5" stroke-miterlimit="10" d="M34.9 145.3a5.4 5.4 0 0 1 .5-2.1 5 5 0 0 1 6.6-2.6 5 5 0 0 1 2.9 4.5 10.4 10.4 0 0 0-9.4-.1z"/><path fill="#844ca5" d="M66.6 135.2a10.7 10.7 0 0 1 13.1 7.1 10.3 10.3 0 0 1-1.5 8.9 10.7 10.7 0 0 0-3.6-5.2 5.2 5.2 0 0 0-2.2-4.9 5 5 0 0 0-7.7 3.4 10.5 10.5 0 0 0-5.1 3.9 10.5 10.5 0 0 1 7-13.2z"/><path fill="#fff" stroke="#844ca5" stroke-miterlimit="10" d="M64.7 144.5a5 5 0 0 1 7.7-3.4 5.2 5.2 0 0 1 2.2 4.9 10.6 10.6 0 0 0-9.3-1.7z"/><path fill="#2fbc5e" stroke="#844ca5" stroke-miterlimit="10" d="M125.6 131.8l2.5-30.6-28.3-11.9 29.8-7 2.5-30.6 16 26.2 29.9-7.1-20 23.3 15.9 26.2-28.3-11.8-20 23.3z"/></symbol><symbol id="shopping-cart" viewBox="0 0 256 256"><path d="M193.9 169.3l-126.8-1.9a22.2 22.2 0 0 1-21.6-18.6L28.3 73.7a17.6 17.6 0 0 1 17.3-20.5h187.7a17.7 17.7 0 0 1 16.8 23l-34.8 77.7a22.2 22.2 0 0 1-21.4 15.4zM17.3 75.6H6.6a3.1 3.1 0 0 1-3-3V59.2a3.1 3.1 0 0 1 3.1-3h17.4a3.1 3.1 0 0 1 2.7 4.4L20 73.9a3.1 3.1 0 0 1-2.7 1.7z"/><path d="M203.9 202.7l1.2 2.9a2.2 2.2 0 0 1-1.9 3H59.8a5.4 5.4 0 0 1-5.8-5.2l-.3-5.4 13.5-40 10.9-.5-12.5 36.7a2.5 2.5 0 0 0 2.5 3.2l133.7 3.9a2.1 2.1 0 0 1 2.1 1.4z"/><circle cx="195.8" cy="221.7" r="9.9"/><circle cx="76.1" cy="221.7" r="9.9"/></symbol><symbol id="menu-close" viewBox="0 0 256 256"><rect width="239.9" height="30.39" x="9.9" y="105.9" rx="10.2" transform="rotate(-42.6 130.042 121.172)"/><rect width="239.9" height="30.39" x="10" y="105.7" rx="10.2" transform="rotate(-137.4 129.923 120.937)"/><rect width="239.9" height="30.39" x="9.9" y="105.9" rx="10.2" transform="rotate(-42.6 130.042 121.172)"/></symbol><symbol id="hamburger-menu" viewBox="0 0 256 256"><rect width="239.9" height="30.39" x="9.7" y="58.6" rx="10.2"/><rect width="239.9" height="30.39" x="9.7" y="100.9" rx="10.2"/><rect width="239.9" height="30.39" x="9.7" y="144.4" rx="10.2"/></symbol></svg>