<svg xmlns="http://www.w3.org/2000/svg" width="32" height="32" viewBox="0 0 32 32"><title>32px</title><g id="logo32"><g id="pits"><path d="M12.8,25.2c0,.1-.1.1-.2.1h-.3l-.4-.3-.3-.3c0-.2.1-.3.1-.4l.3-.2c.1,0,.2-.1.3,0l.5.2c.1.2,0,.4,0,.6Z" fill="#874a00"/><path d="M14.4,29.8h-.2a1.3,1.3,0,0,1-1.2-.4.3.3,0,0,1-.1-.2c-.1-.2.1-.4.3-.5l.3-.2a.2.2,0,0,1,.2.2.5.5,0,0,0,.3.5c.1.1.3.2.4.4Z" fill="#874a00"/><path d="M10,27.1a.7.7,0,0,1-.1.5.5.5,0,0,1-.2.4H9.2a3.1,3.1,0,0,0-.2-.8H9c.1-.2.4-.1.6-.2H10A.2.2,0,0,1,10,27.1Z" fill="#874a00"/><path d="M15.3,22.8c-.1.1-.4.3-.6.2l-.3-.3h-.1a.1.1,0,0,1,.1-.1c0-.1.1-.3.2-.3s.4-.1.6-.1.3.1.3.2A.4.4,0,0,1,15.3,22.8Z" fill="#874a00"/><path d="M18.4,30.4c-.2.1-.4.3-.6.2l-.3-.3a.1.1,0,0,1-.1-.1h.3a.7.7,0,0,0,.6-.4h0l.3.2A.4.4,0,0,1,18.4,30.4Z" fill="#874a00"/><path d="M19.8,20.6c-.2.2-.4.3-.6.2a.3.3,0,0,1-.3-.3h-.1c0-.1,0-.1.1-.1v-.3h.8l.2.2C20.1,20.3,20,20.5,19.8,20.6Z" fill="#874a00"/><path d="M21.3,23.4c0,.1-.1.2-.1.3a2.3,2.3,0,0,1-1.2,1h-.3c-.1,0-.1-.1-.1-.2l.2-.3a1.9,1.9,0,0,0,.2-.8.2.2,0,0,1,.2-.2h.6A.7.7,0,0,1,21.3,23.4Z" fill="#874a00"/><path d="M21.1,28.4l-.5.7a.8.8,0,0,0-.2-.4c0-.1-1-.8-.9-1S20.7,28,21.1,28.4Z" fill="#874a00"/></g><path id="potato" d="M21.8,19.9c0-.1,0-.2-.1-.2l-1.9.3.2.2c.1.1,0,.3-.2.4s-.4.3-.6.2a.3.3,0,0,1-.3-.3h-.1c0-.1,0-.1.1-.1v-.3l-4,.2a22.2,22.2,0,0,1-6.3-.7.1.1,0,0,0-.1-.1,5.1,5.1,0,0,0-.4,1,11.6,11.6,0,0,0,.5,5.2L9,27.1H9c.1-.2.4-.1.6-.2H10a.2.2,0,0,1,0,.3.7.7,0,0,1-.1.5.5.5,0,0,1-.2.4H9.2a.3.3,0,0,1,.1.2,5.7,5.7,0,0,0,2.9,3,7.6,7.6,0,0,0,6.6-.1,3.5,3.5,0,0,0,1.1-1l.7-.9a.8.8,0,0,0-.2-.4c0-.1-1-.8-.9-1s1.2.3,1.6.7a9.8,9.8,0,0,0,.8-1.8A15.2,15.2,0,0,0,21.8,19.9Zm-9,5.3c0,.1-.1.1-.2.1h-.3l-.4-.3-.3-.3c0-.2.1-.3.1-.4l.3-.2c.1,0,.2-.1.3,0l.5.2c.1.2,0,.4,0,.6Zm1.6,4.6h-.2a1.3,1.3,0,0,1-1.2-.4.3.3,0,0,1-.1-.2c-.1-.2.1-.4.3-.5l.3-.2a.2.2,0,0,1,.2.2.5.5,0,0,0,.3.5c.1.1.3.2.4.4Zm.9-7c-.1.1-.4.3-.6.2l-.3-.3h-.1a.1.1,0,0,1,.1-.1c0-.1.1-.3.2-.3s.4-.1.6-.1.3.1.3.2A.4.4,0,0,1,15.3,22.8Zm3.1,7.6c-.2.1-.4.3-.6.2l-.3-.3a.1.1,0,0,1-.1-.1h.3a.7.7,0,0,0,.6-.4h0l.3.2A.4.4,0,0,1,18.4,30.4Zm2.8-6.7a2.3,2.3,0,0,1-1.2,1h-.3c-.1,0-.1-.1-.1-.2l.2-.3a1.9,1.9,0,0,0,.2-.8.2.2,0,0,1,.2-.2h.6a.7.7,0,0,1,.5.4C21.3,23.5,21.2,23.6,21.2,23.7Z" fill="#bc834b"/><g id="stars"><path d="M19.9,15h-1a.8.8,0,0,0-.8.3l-.8.8c-.2-.1-.2-.3-.1-.5a.9.9,0,0,0,.1-.5c0-.2-.2-.3-.3-.4h-.7l.8-.5.4-.4V13c0-.2.2-.2.3-.2l.3.3a.5.5,0,0,0,.2.4h.6l.6-.2c.1-.1.3-.2.4-.1l-.5.7c-.1.2-.2.3-.1.5l.6.6Z" fill="#ffed6c"/><path d="M17.6,6.1a.2.2,0,0,1-.2.2l-.4.3-.2.2a.1.1,0,0,0,.1.1l.5.6H16l-.9.9c-.1,0-.1-.2-.1-.3V7.3a.3.3,0,0,0-.3-.3l-.5-.2c0-.1-.1-.1,0-.2h0l.9-.4c.1,0,.1-.2.1-.3a2,2,0,0,0,.1-.7.4.4,0,0,1,.1-.3.1.1,0,0,1,.2,0h.1l.4.7a.6.6,0,0,0,.6.3h.6C17.6,5.8,17.6,6,17.6,6.1Z" fill="#ffed6c"/><path d="M14.1,12.5v.3h-.3a1.1,1.1,0,0,0-.9-.5,1.2,1.2,0,0,0-1,.5h-.3v-.3l.3-.6a.4.4,0,0,0-.2-.5h-.6c-.1,0-.1-.1-.1-.2h.2l.9-.3c.4-.1.6-.6.7-1a.3.3,0,0,1,.5,0c.1.1.1.4.2.6s.2.4.4.4H15l-.9.7c-.1.1-.2.2-.1.3A2.2,2.2,0,0,0,14.1,12.5Z" fill="#ffed6c"/></g><g id="hat"><path d="M29.7,17c-1.5-.5-5.8-1.2-7.3-1.7h-.5a3.5,3.5,0,0,1-4.5,1.9c1.3-.3,2.8-.9,3.3-2.2a3.3,3.3,0,0,0,0-1.7,21.2,21.2,0,0,0-1.4-5.5c-.7-1.6-1.6-3.5-1-5.1s.4-.5.6-.4a10.7,10.7,0,0,0,.6,3.1,3.5,3.5,0,0,0,2.2,2.1,11.6,11.6,0,0,0-2.3-6.5,3.4,3.4,0,0,0-.9-.8,1.1,1.1,0,0,0-1.1.2,30.6,30.6,0,0,0-7.2,10.8,7.6,7.6,0,0,0-.6,2.6,2.6,2.6,0,0,0,.4,1.5,2,2,0,0,0,1,.8,7.7,7.7,0,0,0,3.4.7,6.2,6.2,0,0,1-3.3.1,3.5,3.5,0,0,1-2.7-2,58.1,58.1,0,0,0-5.8.9,2.5,2.5,0,0,0-.9.4c-.2.3-.2.7.1.8,7,3.1,15.6,3.3,22.8,1.8.9-.2,4.2-.6,4.9-1s.3-.3.4-.4S29.9,17,29.7,17ZM14.1,11.4c-.1.1-.2.2-.1.3a2.2,2.2,0,0,0,.1.8v.3h-.3a1.1,1.1,0,0,0-.9-.5,1.2,1.2,0,0,0-1,.5h-.3v-.3l.3-.6a.4.4,0,0,0-.2-.5h-.6c-.1,0-.1-.1-.1-.2h.2l.9-.3c.4-.1.6-.6.7-1a.3.3,0,0,1,.5,0c.1.1.1.4.2.6s.2.4.4.4H15ZM16,7.5l-.9.9c-.1,0-.1-.2-.1-.3V7.3a.3.3,0,0,0-.3-.3l-.5-.2c0-.1-.1-.1,0-.2h0l.9-.4c.1,0,.1-.2.1-.3a2,2,0,0,0,.1-.7.4.4,0,0,1,.1-.3.1.1,0,0,1,.2,0h.1l.4.7a.6.6,0,0,0,.6.3h.6c.2-.1.2.1.2.2a.2.2,0,0,1-.2.2l-.4.3-.2.2a.1.1,0,0,0,.1.1l.5.6H16Zm1.2,8.1a.9.9,0,0,0,.1-.5c0-.2-.2-.3-.3-.4h-.7l.8-.5.4-.4V13c0-.2.2-.2.3-.2l.3.3a.5.5,0,0,0,.2.4h.6l.6-.2c.1-.1.3-.2.4-.1l-.5.7c-.1.2-.2.3-.1.5l.6.6h-1a.8.8,0,0,0-.8.3l-.8.8C17.1,16,17.1,15.8,17.2,15.6Z" fill="#340391"/></g></g></svg>