<svg height="256" viewBox="0 0 256 256" width="256" xmlns="http://www.w3.org/2000/svg"><g fill="#874a00"><path d="m104.8 202.6a1.9 1.9 0 0 1 -1.7 1 5.1 5.1 0 0 1 -2.1-.6 21.4 21.4 0 0 1 -3.8-2.3 5.1 5.1 0 0 1 -1.9-2.5 3.3 3.3 0 0 1 .9-2.7 9.6 9.6 0 0 1 2.4-1.7c.7-.4 1.5-.7 2-.3s2.9.9 3.8 2 0 3.3.2 4.9a5.7 5.7 0 0 1 .2 2.2z"/><path d="m117.4 239.6a1.5 1.5 0 0 1 -1.1.4c-3.8.2-8-.8-10.3-3.8a3.8 3.8 0 0 1 -.8-1.7c-.2-1.7 1.3-3 2.6-4a5.1 5.1 0 0 1 2.5-1.1 1.6 1.6 0 0 1 1.8 1.6c-.2 1.5 1 2.9 2.2 3.9s2.7 1.9 3.2 3.3a1.4 1.4 0 0 1 -.1 1.4z"/><path d="m82.5 217.9a23.3 23.3 0 0 1 -1 4.4 4.3 4.3 0 0 1 -1.7 2.6 3.3 3.3 0 0 1 -2.9 0l-.9-.5c-.6-2.1-1.2-4.1-1.7-6.2a1.9 1.9 0 0 0 -.2-.7l.2-.3c.9-1.4 3-1.1 4.6-1.9a4.6 4.6 0 0 1 1.9-.8 1.9 1.9 0 0 1 1.6 1.3 4.9 4.9 0 0 1 .1 2.1z"/><path d="m125.3 182.8c-1.5 1.3-3.5 2.3-5.3 1.6a6.4 6.4 0 0 1 -2.6-2.3c-.1-.2-.3-.4-.3-.6a1.3 1.3 0 0 1 .3-1 7.3 7.3 0 0 1 2.2-2.7 5.8 5.8 0 0 1 5-.2 3.3 3.3 0 0 1 2.2 1.6c.5 1.3-.4 2.7-1.5 3.6z"/><path d="m150.3 244.4c-1.4 1.3-3.5 2.2-5.3 1.5a6.7 6.7 0 0 1 -2.5-2.2 1.6 1.6 0 0 1 -.4-.7.6.6 0 0 1 .1-.4l.5.3h2a4.8 4.8 0 0 0 4.3-3.7v-.6l.6.2a3.3 3.3 0 0 1 2.2 1.6c.6 1.6-.4 3-1.5 4z"/><path d="m161.7 165.5c-1.5 1.3-3.5 2.3-5.3 1.5a5.9 5.9 0 0 1 -2.5-2.2 1 1 0 0 1 -.4-.7 1.6 1.6 0 0 1 .3-.9 11 11 0 0 1 1.4-2.1h.1l6.1-.7a2.9 2.9 0 0 1 1.8 1.4c.5 1.3-.4 2.7-1.5 3.7z"/><path d="m173.3 187.7a4.3 4.3 0 0 1 -.8 2.7 17.5 17.5 0 0 1 -9.6 7.7 2.9 2.9 0 0 1 -2.4-.1 1.9 1.9 0 0 1 -.4-2.2 9.9 9.9 0 0 1 1.1-2 11.1 11.1 0 0 0 2-6.8c0-.7.9-1.2 1.6-1.4a10.9 10.9 0 0 1 5-1 3.6 3.6 0 0 1 3.5 3.1z"/><path d="m171.9 228.6a64.9 64.9 0 0 1 -3.6 5.5 25.9 25.9 0 0 0 -1.7-3.3c-.4-.6-8.4-6.8-7.2-8.4s9.3 3.1 12.5 6.2z"/></g><path d="m177.8 159.1c-.1-.6-.4-1.4-1.1-1.3-5 1.1-10.1 1.9-15.3 2.6a2.9 2.9 0 0 1 1.8 1.4c.5 1.3-.4 2.7-1.5 3.7s-3.5 2.3-5.3 1.5a5.9 5.9 0 0 1 -2.5-2.2 1 1 0 0 1 -.4-.7 1.6 1.6 0 0 1 .3-.9 11 11 0 0 1 1.4-2.1c-10.8 1.1-21.8 1.5-32.7 1.6-17 .2-34.4-.4-50.6-5.9a2.4 2.4 0 0 1 -1.3-.9 72.4 72.4 0 0 0 -3.1 8.6c-3 13.9.4 28.2 3.9 41.9l2.7 11.1.2-.3c.9-1.4 3-1.1 4.6-1.9a4.6 4.6 0 0 1 1.9-.8 1.9 1.9 0 0 1 1.6 1.3 4.9 4.9 0 0 1 .1 2.1 23.3 23.3 0 0 1 -1 4.4 4.3 4.3 0 0 1 -1.7 2.6 3.3 3.3 0 0 1 -2.9 0l-.9-.5a14.6 14.6 0 0 0 .7 1.9c4.1 10.7 13.2 19 23.6 23.9a60.6 60.6 0 0 0 52.9-.9 32.2 32.2 0 0 0 9.4-7.9 79.6 79.6 0 0 0 5.7-7.3 25.9 25.9 0 0 0 -1.7-3.3c-.4-.6-8.4-6.8-7.2-8.4s9.3 3.1 12.5 6.2a65.4 65.4 0 0 0 6.4-14.6c5.4-17.7 2.8-36.7-.5-54.9zm-73 43.5a1.9 1.9 0 0 1 -1.7 1 5.1 5.1 0 0 1 -2.1-.6 21.4 21.4 0 0 1 -3.8-2.3 5.1 5.1 0 0 1 -1.9-2.5 3.3 3.3 0 0 1 .9-2.7 9.6 9.6 0 0 1 2.4-1.7c.7-.4 1.5-.7 2-.3s2.9.9 3.8 2 0 3.3.2 4.9a5.7 5.7 0 0 1 .2 2.2zm12.6 37a1.5 1.5 0 0 1 -1.1.4c-3.8.2-8-.8-10.3-3.8a3.8 3.8 0 0 1 -.8-1.7c-.2-1.7 1.3-3 2.6-4a5.1 5.1 0 0 1 2.5-1.1 1.6 1.6 0 0 1 1.8 1.6c-.2 1.5 1 2.9 2.2 3.9s2.7 1.9 3.2 3.3a1.4 1.4 0 0 1 -.1 1.4zm7.9-56.8c-1.5 1.3-3.5 2.3-5.3 1.6a6.4 6.4 0 0 1 -2.6-2.3c-.1-.2-.3-.4-.3-.6a1.3 1.3 0 0 1 .3-1 7.3 7.3 0 0 1 2.2-2.7 5.8 5.8 0 0 1 5-.2 3.3 3.3 0 0 1 2.2 1.6c.5 1.3-.4 2.7-1.5 3.6zm25 61.6c-1.4 1.3-3.5 2.2-5.3 1.5a6.7 6.7 0 0 1 -2.5-2.2 1.6 1.6 0 0 1 -.4-.7.6.6 0 0 1 .1-.4l.5.3h2a4.8 4.8 0 0 0 4.3-3.7v-.6l.6.2a3.3 3.3 0 0 1 2.2 1.6c.6 1.6-.4 3-1.5 4zm22.2-54a17.5 17.5 0 0 1 -9.6 7.7 2.9 2.9 0 0 1 -2.4-.1 1.9 1.9 0 0 1 -.4-2.2 9.9 9.9 0 0 1 1.1-2 11.1 11.1 0 0 0 2-6.8c0-.7.9-1.2 1.6-1.4a10.9 10.9 0 0 1 5-1 3.6 3.6 0 0 1 3.5 3.1 4.3 4.3 0 0 1 -.8 2.7z" fill="#bc834b"/><path d="m162.3 119.9c.1.6-.7.8-1.3.7-2.2-.3-4.5-1-6.7-1a7.7 7.7 0 0 0 -6.2 2.3 34.7 34.7 0 0 1 -7.1 6.7c-1.1-.8-1-2.6-.6-3.9s1.2-2.7.9-4.1a4 4 0 0 0 -2.6-2.9 8.1 8.1 0 0 0 -4.1-.3c-.9.1-2.4-.2-2.1-1.1a1.3 1.3 0 0 1 .6-.7 35.2 35.2 0 0 1 6.8-3.9 5.4 5.4 0 0 0 2.8-3.6 14.2 14.2 0 0 0 .2-4.6 1.7 1.7 0 0 1 2.5-1.3 4.9 4.9 0 0 1 2.1 2.6 4.9 4.9 0 0 0 1.8 2.8c1.3.9 3 .6 4.5.2a19.4 19.4 0 0 0 5.4-2c1-.6 2.4-1.4 3.1-.4-1.5 1.9-2.9 3.9-4.4 5.9s-1.5 2.4-.6 3.3 3.1 3.3 4.7 5z" fill="#ffed6c"/><path d="m143.8 47.6a3.7 3.7 0 0 1 -1.8 1.9l-3.5 2.4c-.6.4-1.2 1-1.1 1.7s.3.6.5.9l4.5 4.8-7.8-.9c-1.5-.2-3.4-.2-4.2 1a27 27 0 0 1 -7.1 7.2 2.9 2.9 0 0 1 -.5-2.4c.3-2.2.5-4.4.8-6.6s-1.4-2.4-2.8-2.7-3-.5-3.9-1.7a1.3 1.3 0 0 1 -.2-1.2c.1-.2.4-.3.6-.5a54.4 54.4 0 0 1 6.5-3c1-.4 1.3-1.6 1.5-2.6s.5-3.9.7-5.8a3.5 3.5 0 0 1 .6-1.7 1.3 1.3 0 0 1 1.6-.6 2.2 2.2 0 0 1 .7.9l3.1 5.4a5.7 5.7 0 0 0 4.8 2.7 17.7 17.7 0 0 0 5.6-.9c.9-.2 1.6.9 1.4 1.7z" fill="#ffed6c"/><path d="m115.3 99.5a3.6 3.6 0 0 1 -.1 2.3 1.2 1.2 0 0 1 -2 .3 9.7 9.7 0 0 0 -15.8 0c-.4.6-1.5.4-1.9-.3a2.6 2.6 0 0 1 -.2-2.3 11.8 11.8 0 0 1 2.2-5c1-1.3 0-3.3-1.4-4.1s-3.2-.6-4.9-.4-1-.9-.7-1.5a2.8 2.8 0 0 1 1.7-1.1l6.5-2.3c3.4-1.1 4.9-5 6-8.4.6-1.6 3.1-1.4 4.2-.1s1.1 3.2 1.5 4.8 1.7 3.4 3.4 3.2l6.9-.5c.8-.1 1.9.1 1.9.9-2.5 1.9-4.9 3.8-7.2 5.9-.7.6-1.5 1.4-1.3 2.4z" fill="#ffed6c"/><path d="m241.9 135.8c-12.3-3.9-47.5-9.4-59.7-13.2-1.4-.5-3.3-.7-3.8.7-5.5 13.6-22.9 20.9-36.4 15.2 10.7-2.8 23.1-7.1 26.7-17.6 1.5-4.5 1.1-9.4.5-14.2a179.4 179.4 0 0 0 -12-44.3c-5.6-13.4-13-28.1-7.7-41.6.7-2 2.8-4.2 4.5-3 .8 8.5 1.6 17.1 5 24.9s9.7 14.9 18 16.8a92 92 0 0 0 -18.8-51.9c-2-2.6-4.2-5.2-7.2-6.6s-6.8-1.3-9.1 1a251.3 251.3 0 0 0 -58 87.5c-2.7 6.9-5.1 14.1-5.3 21.6 0 4.2.7 8.7 3.3 12.1s5.1 4.5 8.1 6a61.8 61.8 0 0 0 28 6.1c-9 2.1-18.4 3.1-27.4.9s-17.4-7.7-21.3-16.1a361.4 361.4 0 0 0 -47.4 7.1c-2.5.6-5.3 1.3-7 3.2s-1.7 5.7.8 6.8c57 24.7 126.1 26.4 184.9 14.1 6.8-1.4 33.7-4.4 39.5-8.2a7.5 7.5 0 0 0 3.3-3.3c.6-1.5 0-3.6-1.5-4zm-126.5-44.9c-.7.6-1.5 1.4-1.3 2.4l1.2 6.2a3.6 3.6 0 0 1 -.1 2.3 1.2 1.2 0 0 1 -2 .3 9.7 9.7 0 0 0 -15.8 0c-.4.6-1.5.4-1.9-.3a2.6 2.6 0 0 1 -.2-2.3 11.8 11.8 0 0 1 2.2-5c1-1.3 0-3.3-1.4-4.1s-3.2-.6-4.9-.4-1-.9-.7-1.5a2.8 2.8 0 0 1 1.7-1.1l6.5-2.3c3.4-1.1 4.9-5 6-8.4.6-1.6 3.1-1.4 4.2-.1s1.1 3.2 1.5 4.8 1.7 3.4 3.4 3.2l6.9-.5c.8-.1 1.9.1 1.9.9-2.5 1.9-4.9 3.8-7.2 5.9zm15-31.5a27 27 0 0 1 -7.1 7.2 2.9 2.9 0 0 1 -.5-2.4c.3-2.2.5-4.4.8-6.6s-1.4-2.4-2.8-2.7-3-.5-3.9-1.7a1.3 1.3 0 0 1 -.2-1.2c.1-.2.4-.3.6-.5a54.4 54.4 0 0 1 6.5-3c1-.4 1.3-1.6 1.5-2.6s.5-3.9.7-5.8a3.5 3.5 0 0 1 .6-1.7 1.3 1.3 0 0 1 1.6-.6 2.2 2.2 0 0 1 .7.9l3.1 5.4a5.7 5.7 0 0 0 4.8 2.7 17.7 17.7 0 0 0 5.6-.9c.9-.2 1.6.9 1.4 1.7a3.7 3.7 0 0 1 -1.8 1.9l-3.5 2.4c-.6.4-1.2 1-1.1 1.7s.3.6.5.9l4.5 4.8-7.8-.9c-1.5-.2-3.4-.2-4.2 1zm10 65.3c.4-1.4 1.2-2.7.9-4.1a4 4 0 0 0 -2.6-2.9 8.1 8.1 0 0 0 -4.1-.3c-.9.1-2.4-.2-2.1-1.1a1.3 1.3 0 0 1 .6-.7 35.2 35.2 0 0 1 6.8-3.9 5.4 5.4 0 0 0 2.8-3.6 14.2 14.2 0 0 0 .2-4.6 1.7 1.7 0 0 1 2.5-1.3 4.9 4.9 0 0 1 2.1 2.6 4.9 4.9 0 0 0 1.8 2.8c1.3.9 3 .6 4.5.2a19.4 19.4 0 0 0 5.4-2c1-.6 2.4-1.4 3.1-.4-1.5 1.9-2.9 3.9-4.4 5.9s-1.5 2.4-.6 3.3 3.1 3.3 4.7 5l.3.3c.1.6-.7.8-1.3.7-2.2-.3-4.5-1-6.7-1a7.7 7.7 0 0 0 -6.2 2.3 34.7 34.7 0 0 1 -7.1 6.7c-1.1-.8-1-2.6-.6-3.9z" fill="#340391"/></svg>