<svg xmlns="http://www.w3.org/2000/svg" width="64" height="64" viewBox="0 0 64 64"><title>64px</title><g id="logo64"><g id="pits"><path d="M27.3,50.7c-.1.2-.2.3-.4.3l-.5-.2a2.1,2.1,0,0,1-1-.6,1,1,0,0,1-.5-.6,1.1,1.1,0,0,1,.3-.7l.6-.4a.3.3,0,0,1,.5,0c.2.2.7.2.9.4s0,.9.1,1.3S27.4,50.5,27.3,50.7Z" fill="#874a00"/><path d="M30.4,59.9c0,.1-.1.1-.2.1a3,3,0,0,1-2.6-.9l-.2-.4a1.1,1.1,0,0,1,.7-1,.7.7,0,0,1,.6-.3c.2,0,.5.2.4.4a1.5,1.5,0,0,0,.6,1,2,2,0,0,1,.8.8A.4.4,0,0,1,30.4,59.9Z" fill="#874a00"/><path d="M21.8,54.5l-.3,1.1a1.6,1.6,0,0,1-.4.7.9.9,0,0,1-.7,0l-.3-.2h0a8.3,8.3,0,0,0-.4-1.5v-.2h0c.2-.3.8-.2,1.2-.4l.4-.2c.2,0,.4.1.4.3A.9.9,0,0,1,21.8,54.5Z" fill="#874a00"/><path d="M32.4,45.8c-.4.3-.9.6-1.3.4a1.2,1.2,0,0,1-.6-.6.1.1,0,0,1-.1-.1v-.3c.2-.2.3-.5.6-.7a1.3,1.3,0,0,1,1.2,0,.9.9,0,0,1,.6.4A.9.9,0,0,1,32.4,45.8Z" fill="#874a00"/><path d="M38.6,61.1a1.2,1.2,0,0,1-1.3.4,1.7,1.7,0,0,1-.6-.6h.5a1.1,1.1,0,0,0,1.1-.9h.2a1,1,0,0,1,.5.4C39.2,60.5,38.9,60.9,38.6,61.1Z" fill="#874a00"/><path d="M41.5,41.5a1.8,1.8,0,0,1-1.4.4l-.6-.6c0-.1-.1-.1-.1-.2a.3.3,0,0,0,.1-.2,1,1,0,0,1,.4-.5h0l1.5-.2h0c.2.1.4.2.4.4S41.7,41.2,41.5,41.5Z" fill="#874a00"/><path d="M44.4,47a1.9,1.9,0,0,1-.2.7,4.5,4.5,0,0,1-2.4,1.9c-.2,0-.5.1-.6,0a.5.5,0,0,1-.1-.6c0-.2.2-.3.3-.5a3.4,3.4,0,0,0,.5-1.7.3.3,0,0,1,.3-.3,3.1,3.1,0,0,1,1.3-.3A1.2,1.2,0,0,1,44.4,47Z" fill="#874a00"/><path d="M44,57.2l-.9,1.4a3.6,3.6,0,0,0-.4-.9c-.1-.1-2.1-1.7-1.8-2.1S43.2,56.4,44,57.2Z" fill="#874a00"/></g><path id="potato" d="M45.5,39.9c0-.2-.1-.4-.3-.3l-3.8.6c.2.1.4.2.4.4s-.1.6-.3.9a1.8,1.8,0,0,1-1.4.4l-.6-.6c0-.1-.1-.1-.1-.2a.3.3,0,0,0,.1-.2,1,1,0,0,1,.4-.5,75,75,0,0,1-8.2.4c-4.2,0-8.5-.1-12.6-1.5l-.3-.2L18,41.2c-.7,3.5.1,7.1,1,10.5l.7,2.7h0c.2-.3.8-.2,1.2-.4l.4-.2c.2,0,.4.1.4.3a.9.9,0,0,1,.1.5l-.3,1.1a1.6,1.6,0,0,1-.4.7.9.9,0,0,1-.7,0l-.3-.2c.1.2.1.4.2.5a11.5,11.5,0,0,0,5.9,6,15.6,15.6,0,0,0,13.2-.2,11,11,0,0,0,2.3-2l1.4-1.8a3.6,3.6,0,0,0-.4-.9c-.1-.1-2.1-1.7-1.8-2.1s2.3.8,3.1,1.6a17.3,17.3,0,0,0,1.6-3.7C46.9,49.1,46.3,44.4,45.5,39.9ZM27.3,50.7c-.1.2-.2.3-.4.3l-.5-.2a2.1,2.1,0,0,1-1-.6,1,1,0,0,1-.5-.6,1.1,1.1,0,0,1,.3-.7l.6-.4a.3.3,0,0,1,.5,0c.2.2.7.2.9.4s0,.9.1,1.3S27.4,50.5,27.3,50.7Zm3.1,9.2c0,.1-.1.1-.2.1a3,3,0,0,1-2.6-.9l-.2-.4a1.1,1.1,0,0,1,.7-1,.7.7,0,0,1,.6-.3c.2,0,.5.2.4.4a1.5,1.5,0,0,0,.6,1,2,2,0,0,1,.8.8A.4.4,0,0,1,30.4,59.9Zm2-14.1c-.4.3-.9.6-1.3.4a1.2,1.2,0,0,1-.6-.6.1.1,0,0,1-.1-.1v-.3c.2-.2.3-.5.6-.7a1.3,1.3,0,0,1,1.2,0,.9.9,0,0,1,.6.4A.9.9,0,0,1,32.4,45.8Zm6.2,15.3a1.2,1.2,0,0,1-1.3.4,1.7,1.7,0,0,1-.6-.6h.5a1.1,1.1,0,0,0,1.1-.9h.2a1,1,0,0,1,.5.4C39.2,60.5,38.9,60.9,38.6,61.1Zm5.6-13.4a4.5,4.5,0,0,1-2.4,1.9c-.2,0-.5.1-.6,0a.5.5,0,0,1-.1-.6c0-.2.2-.3.3-.5a3.4,3.4,0,0,0,.5-1.7.3.3,0,0,1,.3-.3,3.1,3.1,0,0,1,1.3-.3,1.2,1.2,0,0,1,.9.8A1.9,1.9,0,0,1,44.2,47.7Z" fill="#bc834b"/><g id="stars"><path d="M41.6,30.1c.1.2-.2.2-.3.2L39.6,30a2.2,2.2,0,0,0-1.5.6,7.3,7.3,0,0,1-1.8,1.7c-.3-.2-.2-.6-.1-1s.3-.7.2-1a1,1,0,0,0-.7-.7h-1c-.2,0-.6,0-.5-.3h.2a5.9,5.9,0,0,1,1.7-1,1.5,1.5,0,0,0,.6-.9,4.9,4.9,0,0,0,.1-1.2c0-.2.4-.4.6-.3s.4.4.5.7l.5.7a1.4,1.4,0,0,0,1.1,0,3.4,3.4,0,0,0,1.4-.5c.2-.1.6-.3.7-.1L40.5,28a.6.6,0,0,0-.1.8L41.6,30Z" fill="#ffed6c"/><path d="M37,12.1a.7.7,0,0,1-.4.5l-.9.6c-.1.1-.3.2-.3.4a.2.2,0,0,0,.2.2L36.7,15l-2-.2c-.4,0-.8,0-1,.3a5.8,5.8,0,0,1-1.8,1.7c-.1-.1-.1-.3-.1-.6l.2-1.6c0-.3-.4-.6-.7-.7a1.2,1.2,0,0,1-1-.4c0-.1-.1-.2,0-.3h.1l1.7-.8c.2,0,.3-.4.3-.6s.1-1,.2-1.4a.9.9,0,0,1,.1-.5c.1-.1.3-.2.4-.1a.2.2,0,0,1,.2.2l.8,1.4a1.3,1.3,0,0,0,1.2.6,3.4,3.4,0,0,0,1.4-.2C36.9,11.6,37.1,11.9,37,12.1Z" fill="#ffed6c"/><path d="M29.9,25a.6.6,0,0,1,0,.6c-.1.2-.4.3-.5.1a2.5,2.5,0,0,0-2-1,2.4,2.4,0,0,0-1.9,1,.3.3,0,0,1-.5-.1c-.1-.1-.1-.4-.1-.5a3.1,3.1,0,0,1,.6-1.3.8.8,0,0,0-.4-1,1.6,1.6,0,0,0-1.2-.1c-.1,0-.2-.3-.1-.4s.2-.2.4-.3l1.6-.5c.8-.3,1.2-1.3,1.5-2.1s.8-.4,1-.1a2.8,2.8,0,0,1,.4,1.2c.1.4.4.9.8.8h1.8c.2,0,.4,0,.4.2L30,22.9c-.2.2-.4.4-.4.6Z" fill="#ffed6c"/></g><g id="hat"><path d="M61.4,34.1c-3-1-11.8-2.4-14.8-3.3-.4-.1-.8-.2-1,.2a7,7,0,0,1-9,3.7c2.6-.7,5.7-1.7,6.6-4.3a7.3,7.3,0,0,0,.1-3.6,42.8,42.8,0,0,0-3-11c-1.3-3.3-3.2-7-1.9-10.4.2-.4.7-1,1.2-.7a21.3,21.3,0,0,0,1.2,6.2,6.7,6.7,0,0,0,4.5,4.2A22.8,22.8,0,0,0,40.6,2.2,4.9,4.9,0,0,0,38.8.5a2.2,2.2,0,0,0-2.3.3A62.8,62.8,0,0,0,22.1,22.6a14.2,14.2,0,0,0-1.3,5.3,5,5,0,0,0,.8,3,4.8,4.8,0,0,0,2,1.5,15.6,15.6,0,0,0,7,1.6,15.6,15.6,0,0,1-6.8.2,7.7,7.7,0,0,1-5.3-4A93.1,93.1,0,0,0,6.7,31.9a4.9,4.9,0,0,0-1.8.8c-.4.5-.4,1.5.2,1.7,14.2,6.2,31.4,6.6,46.1,3.5,1.7-.3,8.4-1.1,9.8-2a2,2,0,0,0,.8-.8A.7.7,0,0,0,61.4,34.1ZM30,22.9c-.2.2-.4.4-.4.6l.3,1.5a.6.6,0,0,1,0,.6c-.1.2-.4.3-.5.1a2.5,2.5,0,0,0-2-1,2.4,2.4,0,0,0-1.9,1,.3.3,0,0,1-.5-.1c-.1-.1-.1-.4-.1-.5a3.1,3.1,0,0,1,.6-1.3.8.8,0,0,0-.4-1,1.6,1.6,0,0,0-1.2-.1c-.1,0-.2-.3-.1-.4s.2-.2.4-.3l1.6-.5c.8-.3,1.2-1.3,1.5-2.1s.8-.4,1-.1a2.8,2.8,0,0,1,.4,1.2c.1.4.4.9.8.8h1.8c.2,0,.4,0,.4.2Zm3.7-7.8a5.8,5.8,0,0,1-1.8,1.7c-.1-.1-.1-.3-.1-.6l.2-1.6c0-.3-.4-.6-.7-.7a1.2,1.2,0,0,1-1-.4c0-.1-.1-.2,0-.3h.1l1.7-.8c.2,0,.3-.4.3-.6s.1-1,.2-1.4a.9.9,0,0,1,.1-.5c.1-.1.3-.2.4-.1a.2.2,0,0,1,.2.2l.8,1.4a1.3,1.3,0,0,0,1.2.6,3.4,3.4,0,0,0,1.4-.2c.2-.1.4.2.3.4a.7.7,0,0,1-.4.5l-.9.6c-.1.1-.3.2-.3.4a.2.2,0,0,0,.2.2L36.7,15l-2-.2C34.3,14.8,33.9,14.8,33.7,15.1Zm2.5,16.2c.1-.3.3-.7.2-1a1,1,0,0,0-.7-.7h-1c-.2,0-.6,0-.5-.3h.2a5.9,5.9,0,0,1,1.7-1,1.5,1.5,0,0,0,.6-.9,4.9,4.9,0,0,0,.1-1.2c0-.2.4-.4.6-.3s.4.4.5.7l.5.7a1.4,1.4,0,0,0,1.1,0,3.4,3.4,0,0,0,1.4-.5c.2-.1.6-.3.7-.1L40.5,28a.6.6,0,0,0-.1.8L41.6,30h0c.1.2-.2.2-.3.2L39.6,30a2.2,2.2,0,0,0-1.5.6,7.3,7.3,0,0,1-1.8,1.7C36,32.1,36.1,31.7,36.2,31.3Z" fill="#340391"/></g></g></svg>