<svg id="logo16" xmlns="http://www.w3.org/2000/svg" width="16" height="16" viewBox="0 0 16 16"><title>16px</title><g id="pits"><path d="M6.4,12.6H6.2L6,12.5H5.8v-.2h.5c.1.1,0,.2,0,.3S6.5,12.6,6.4,12.6Z" fill="#874a00"/><path d="M7.2,14.9h0a.9.9,0,0,1-.7-.3h0c0-.1,0-.2.1-.2h.3v.2l.2.2Z" fill="#874a00"/><path d="M5.1,13.6a.4.4,0,0,0-.1.3H4.6a.6.6,0,0,0-.1-.4H5Z" fill="#874a00"/><path d="M7.7,11.4H7.2c.1-.1.1-.2.2-.2h.4C7.8,11.3,7.8,11.3,7.7,11.4Z" fill="#874a00"/><path d="M9.3,15.2c-.1.1-.2.2-.4.1h0a.3.3,0,0,0,.3-.3h.2Z" fill="#874a00"/><path d="M10,10.3c-.1.1-.2.2-.3.1H9.5V10h.5C10.1,10.2,10.1,10.3,10,10.3Z" fill="#874a00"/><path d="M10.7,11.7v.2c-.2.2-.4.4-.6.4H10c0-.1.1-.3.1-.4h.4Z" fill="#874a00"/><path d="M10.6,14.2c-.1.2-.1.3-.2.4v-.2l-.5-.5C9.9,13.8,10.4,14.1,10.6,14.2Z" fill="#874a00"/></g><path id="potato" d="M11,9.9h-.1L10,10h.1c0,.1,0,.2-.1.2s-.2.2-.3.1H9.5V10H7.5a8.2,8.2,0,0,1-3.1-.3H4.3a2.1,2.1,0,0,1-.2.6,4.8,4.8,0,0,0,.3,2.6v.7H5v.2a.4.4,0,0,0-.1.3H4.7a2.5,2.5,0,0,0,1.5,1.5,3.5,3.5,0,0,0,3.3-.1L10,15l.4-.4v-.2l-.5-.5c.1-.1.6.2.8.3a1.9,1.9,0,0,0,.4-.9A6.5,6.5,0,0,0,11,9.9ZM6.4,12.6H6.2L6,12.5H5.8v-.2h.5c.1.1,0,.2,0,.3S6.5,12.6,6.4,12.6Zm.8,2.3h0a.9.9,0,0,1-.7-.3h0c0-.1,0-.2.1-.2h.3v.2l.2.2Zm.5-3.5H7.2c.1-.1.1-.2.2-.2h.4C7.8,11.3,7.8,11.3,7.7,11.4Zm1.6,3.8c-.1.1-.2.2-.4.1h0a.3.3,0,0,0,.3-.3h.2Zm1.4-3.3c-.2.2-.4.4-.6.4H10c0-.1.1-.3.1-.4h.4l.2.2Z" fill="#bc834b"/><g id="stars"><path d="M10,7.5H9.1a.8.8,0,0,1-.4.4c-.1,0-.1-.1,0-.2V7.5l-.2-.2H8.2L8.6,7l.2-.3V6.5c0-.1.1-.2.2-.1h.1v.2H10l-.3.3v.2l.3.4Z" fill="#ffed6c"/><path d="M8.9,3H8.5v.2h0l.3.3H8l-.4.5V3.6c0-.1-.1-.1-.2-.2s-.2,0-.2-.1h0L7.6,3a.1.1,0,0,0,.1-.1.6.6,0,0,1,.1-.4h.1a.5.5,0,0,1,.2.4h.7A.1.1,0,0,1,8.9,3Z" fill="#ffed6c"/><path d="M7.1,6.2v.2H7a.6.6,0,0,0-1,0H5.9V6.2L6,5.9a.4.4,0,0,0-.1-.3H5.6s-.1,0,0-.1h.1l.4-.2a.5.5,0,0,0,.3-.5h.3a.4.4,0,0,1,.1.3.2.2,0,0,0,.2.2h.5l-.4.4H7C7,6,7.1,6.1,7.1,6.2Z" fill="#ffed6c"/></g><g id="hat"><path d="M15,8.5c-.8-.3-3-.6-3.7-.9H11a1.7,1.7,0,0,1-2.2.9,1.9,1.9,0,0,0,1.6-1.1,1.1,1.1,0,0,0,0-.8,8.9,8.9,0,0,0-.7-2.8c-.3-.8-.8-1.8-.5-2.6s.2-.3.3-.2a9,9,0,0,0,.3,1.6,1.6,1.6,0,0,0,1.1,1A5.4,5.4,0,0,0,9.8.5L9.3.1H8.7A16.9,16.9,0,0,0,5.1,5.6a6.1,6.1,0,0,0-.3,1.3,1.9,1.9,0,0,0,.2.8,1,1,0,0,0,.5.4,3.8,3.8,0,0,0,1.8.3,3.3,3.3,0,0,1-1.7.1,2.1,2.1,0,0,1-1.4-1l-2.9.4-.5.2c-.1.2-.1.4.1.5a19.6,19.6,0,0,0,11.5.8,11.1,11.1,0,0,0,2.5-.5l.2-.2C15.1,8.6,15.1,8.5,15,8.5ZM7.1,5.7H7c0,.2.1.3.1.4v.2H7a.6.6,0,0,0-1,0H5.9V6.2L6,5.9a.4.4,0,0,0-.1-.3H5.6s-.1,0,0-.1h.1l.4-.2a.5.5,0,0,0,.3-.5h.3a.4.4,0,0,1,.1.3.2.2,0,0,0,.2.2h.5Zm.9-2-.4.5V3.6c0-.1-.1-.1-.2-.2s-.2,0-.2-.1h0L7.6,3a.1.1,0,0,0,.1-.1.6.6,0,0,1,.1-.4h.1a.5.5,0,0,1,.2.4h.7a.1.1,0,0,1,.1.1H8.5v.2h0l.3.3H8Zm.7,4.1V7.5l-.2-.2H8.2L8.6,7l.2-.3V6.5c0-.1.1-.2.2-.1h.1v.2H10l-.3.3v.2l.3.4H9.1a.8.8,0,0,1-.4.4C8.6,8,8.6,7.9,8.7,7.8Z" fill="#340391"/></g></svg>