<svg xmlns="http://www.w3.org/2000/svg" width="32" height="32" viewBox="0 0 32 32"><path fill="#874a00" d="M12.8 25.2c0 .1-.1.1-.2.1h-.3l-.4-.3-.3-.3c0-.2.1-.3.1-.4l.3-.2c.1 0 .2-.1.3 0l.5.2c.1.2 0 .4 0 .6zm1.6 4.6h-.2a1.3 1.3 0 0 1-1.2-.4.3.3 0 0 1-.1-.2c-.1-.2.1-.4.3-.5l.3-.2a.2.2 0 0 1 .2.2.5.5 0 0 0 .3.5c.1.1.3.2.4.4zM10 27.1a.7.7 0 0 1-.1.5.5.5 0 0 1-.2.4h-.5a3.1 3.1 0 0 0-.2-.8c.1-.2.4-.1.6-.2h.4a.2.2 0 0 1 0 .1zm5.3-4.3c-.1.1-.4.3-.6.2l-.3-.3h-.1a.1.1 0 0 1 .1-.1c0-.1.1-.3.2-.3s.4-.1.6-.1.3.1.3.2a.4.4 0 0 1-.2.4zm3.1 7.6c-.2.1-.4.3-.6.2l-.3-.3a.1.1 0 0 1-.1-.1h.3a.7.7 0 0 0 .6-.4l.3.2a.4.4 0 0 1-.2.4zm1.4-9.8c-.2.2-.4.3-.6.2a.3.3 0 0 1-.3-.3h-.1c0-.1 0-.1.1-.1v-.3h.8l.2.2c.2 0 .1.2-.1.3zm1.5 2.8c0 .1-.1.2-.1.3a2.3 2.3 0 0 1-1.2 1h-.3c-.1 0-.1-.1-.1-.2l.2-.3a1.9 1.9 0 0 0 .2-.8.2.2 0 0 1 .2-.2h.6a.7.7 0 0 1 .5.2zm-.2 5l-.5.7a.8.8 0 0 0-.2-.4c0-.1-1-.8-.9-1s1.2.3 1.6.7z"/><path fill="#bc834b" d="M21.8 19.9c0-.1 0-.2-.1-.2l-1.9.3.2.2c.1.1 0 .3-.2.4s-.4.3-.6.2a.3.3 0 0 1-.3-.3h-.1c0-.1 0-.1.1-.1v-.3l-4 .2a22.2 22.2 0 0 1-6.3-.7.1.1 0 0 0-.1-.1 5.1 5.1 0 0 0-.4 1 11.6 11.6 0 0 0 .5 5.2l.4 1.4c.1-.2.4-.1.6-.2h.4a.2.2 0 0 1 0 .3.7.7 0 0 1-.1.5.5.5 0 0 1-.2.4h-.5a.3.3 0 0 1 .1.2 5.7 5.7 0 0 0 2.9 3 7.6 7.6 0 0 0 6.6-.1 3.5 3.5 0 0 0 1.1-1l.7-.9a.8.8 0 0 0-.2-.4c0-.1-1-.8-.9-1s1.2.3 1.6.7a9.8 9.8 0 0 0 .8-1.8 15.2 15.2 0 0 0-.1-6.9zm-9 5.3c0 .1-.1.1-.2.1h-.3l-.4-.3-.3-.3c0-.2.1-.3.1-.4l.3-.2c.1 0 .2-.1.3 0l.5.2c.1.2 0 .4 0 .6zm1.6 4.6h-.2a1.3 1.3 0 0 1-1.2-.4.3.3 0 0 1-.1-.2c-.1-.2.1-.4.3-.5l.3-.2a.2.2 0 0 1 .2.2.5.5 0 0 0 .3.5c.1.1.3.2.4.4zm.9-7c-.1.1-.4.3-.6.2l-.3-.3h-.1a.1.1 0 0 1 .1-.1c0-.1.1-.3.2-.3s.4-.1.6-.1.3.1.3.2a.4.4 0 0 1-.2.4zm3.1 7.6c-.2.1-.4.3-.6.2l-.3-.3a.1.1 0 0 1-.1-.1h.3a.7.7 0 0 0 .6-.4l.3.2a.4.4 0 0 1-.2.4zm2.8-6.7a2.3 2.3 0 0 1-1.2 1h-.3c-.1 0-.1-.1-.1-.2l.2-.3a1.9 1.9 0 0 0 .2-.8.2.2 0 0 1 .2-.2h.6a.7.7 0 0 1 .5.4c0-.1-.1 0-.1.1z"/><path fill="#ffed6c" d="M19.9 15h-1a.8.8 0 0 0-.8.3l-.8.8c-.2-.1-.2-.3-.1-.5a.9.9 0 0 0 .1-.5c0-.2-.2-.3-.3-.4h-.7l.8-.5.4-.4V13c0-.2.2-.2.3-.2l.3.3a.5.5 0 0 0 .2.4h.6l.6-.2c.1-.1.3-.2.4-.1l-.5.7c-.1.2-.2.3-.1.5l.6.6zm-2.3-8.9a.2.2 0 0 1-.2.2l-.4.3-.2.2a.1.1 0 0 0 .1.1l.5.6H16l-.9.9c-.1 0-.1-.2-.1-.3v-.8a.3.3 0 0 0-.3-.3l-.5-.2c0-.1-.1-.1 0-.2l.9-.4c.1 0 .1-.2.1-.3a2 2 0 0 0 .1-.7.4.4 0 0 1 .1-.3.1.1 0 0 1 .2 0h.1l.4.7a.6.6 0 0 0 .6.3h.6c.3-.1.3.1.3.2zm-3.5 6.4v.3h-.3a1.1 1.1 0 0 0-.9-.5 1.2 1.2 0 0 0-1 .5h-.3v-.3l.3-.6a.4.4 0 0 0-.2-.5h-.6c-.1 0-.1-.1-.1-.2h.2l.9-.3c.4-.1.6-.6.7-1a.3.3 0 0 1 .5 0c.1.1.1.4.2.6s.2.4.4.4H15l-.9.7c-.1.1-.2.2-.1.3a2.2 2.2 0 0 0 .1.6z"/><path fill="#340391" d="M29.7 17c-1.5-.5-5.8-1.2-7.3-1.7h-.5a3.5 3.5 0 0 1-4.5 1.9c1.3-.3 2.8-.9 3.3-2.2a3.3 3.3 0 0 0 0-1.7 21.2 21.2 0 0 0-1.4-5.5c-.7-1.6-1.6-3.5-1-5.1s.4-.5.6-.4a10.7 10.7 0 0 0 .6 3.1 3.5 3.5 0 0 0 2.2 2.1A11.6 11.6 0 0 0 19.4 1a3.4 3.4 0 0 0-.9-.8 1.1 1.1 0 0 0-1.1.2 30.6 30.6 0 0 0-7.2 10.8 7.6 7.6 0 0 0-.6 2.6 2.6 2.6 0 0 0 .4 1.5 2 2 0 0 0 1 .8 7.7 7.7 0 0 0 3.4.7 6.2 6.2 0 0 1-3.3.1 3.5 3.5 0 0 1-2.7-2 58.1 58.1 0 0 0-5.8.9 2.5 2.5 0 0 0-.9.4c-.2.3-.2.7.1.8 7 3.1 15.6 3.3 22.8 1.8.9-.2 4.2-.6 4.9-1s.3-.3.4-.4 0-.4-.2-.4zm-15.6-5.6c-.1.1-.2.2-.1.3a2.2 2.2 0 0 0 .1.8v.3h-.3a1.1 1.1 0 0 0-.9-.5 1.2 1.2 0 0 0-1 .5h-.3v-.3l.3-.6a.4.4 0 0 0-.2-.5h-.6c-.1 0-.1-.1-.1-.2h.2l.9-.3c.4-.1.6-.6.7-1a.3.3 0 0 1 .5 0c.1.1.1.4.2.6s.2.4.4.4H15zM16 7.5l-.9.9c-.1 0-.1-.2-.1-.3v-.8a.3.3 0 0 0-.3-.3l-.5-.2c0-.1-.1-.1 0-.2l.9-.4c.1 0 .1-.2.1-.3a2 2 0 0 0 .1-.7.4.4 0 0 1 .1-.3.1.1 0 0 1 .2 0h.1l.4.7a.6.6 0 0 0 .6.3h.6c.2-.1.2.1.2.2a.2.2 0 0 1-.2.2l-.4.3-.2.2a.1.1 0 0 0 .1.1l.5.6H16zm1.2 8.1a.9.9 0 0 0 .1-.5c0-.2-.2-.3-.3-.4h-.7l.8-.5.4-.4V13c0-.2.2-.2.3-.2l.3.3a.5.5 0 0 0 .2.4h.6l.6-.2c.1-.1.3-.2.4-.1l-.5.7c-.1.2-.2.3-.1.5l.6.6h-1a.8.8 0 0 0-.8.3l-.8.8c-.2-.1-.2-.3-.1-.5z"/></svg>