<svg xmlns="http://www.w3.org/2000/svg" width="16" height="16" viewBox="0 0 16 16"><path fill="#874a00" d="M6.4 12.6h-.2l-.2-.1h-.2v-.2h.5c.1.1 0 .2 0 .3s.2 0 .1 0zm.8 2.3a.9.9 0 0 1-.7-.3c0-.1 0-.2.1-.2h.3v.2l.2.2zm-2.1-1.3a.4.4 0 0 0-.1.3h-.4a.6.6 0 0 0-.1-.4H5zm2.6-2.2h-.5c.1-.1.1-.2.2-.2h.4c0 .1 0 .1-.1.2zm1.6 3.8c-.1.1-.2.2-.4.1a.3.3 0 0 0 .3-.3h.2zm.7-4.9c-.1.1-.2.2-.3.1h-.2V10h.5c.1.2.1.3 0 .3zm.7 1.4v.2c-.2.2-.4.4-.6.4H10c0-.1.1-.3.1-.4h.4zm-.1 2.5c-.1.2-.1.3-.2.4v-.2l-.5-.5c0-.1.5.2.7.3z"/><path fill="#bc834b" d="M11 9.9h-.1l-.9.1h.1c0 .1 0 .2-.1.2s-.2.2-.3.1h-.2V10h-2a8.2 8.2 0 0 1-3.1-.3h-.1a2.1 2.1 0 0 1-.2.6 4.8 4.8 0 0 0 .3 2.6v.7H5v.2a.4.4 0 0 0-.1.3h-.2a2.5 2.5 0 0 0 1.5 1.5 3.5 3.5 0 0 0 3.3-.1l.5-.5.4-.4v-.2l-.5-.5c.1-.1.6.2.8.3a1.9 1.9 0 0 0 .4-.9 6.5 6.5 0 0 0-.1-3.4zm-4.6 2.7h-.2l-.2-.1h-.2v-.2h.5c.1.1 0 .2 0 .3s.2 0 .1 0zm.8 2.3a.9.9 0 0 1-.7-.3c0-.1 0-.2.1-.2h.3v.2l.2.2zm.5-3.5h-.5c.1-.1.1-.2.2-.2h.4c0 .1 0 .1-.1.2zm1.6 3.8c-.1.1-.2.2-.4.1a.3.3 0 0 0 .3-.3h.2zm1.4-3.3c-.2.2-.4.4-.6.4H10c0-.1.1-.3.1-.4h.4l.2.2z"/><path fill="#ffed6c" d="M10 7.5h-.9a.8.8 0 0 1-.4.4c-.1 0-.1-.1 0-.2v-.2l-.2-.2h-.3l.4-.3.2-.3v-.2c0-.1.1-.2.2-.1h.1v.2h.9l-.3.3v.2l.3.4zM8.9 3h-.4v.2l.3.3H8l-.4.5v-.4c0-.1-.1-.1-.2-.2s-.2 0-.2-.1l.4-.3a.1.1 0 0 0 .1-.1.6.6 0 0 1 .1-.4h.1a.5.5 0 0 1 .2.4h.7a.1.1 0 0 1 .1.1zM7.1 6.2v.2H7a.6.6 0 0 0-1 0h-.1v-.2l.1-.3a.4.4 0 0 0-.1-.3h-.3s-.1 0 0-.1h.1l.4-.2a.5.5 0 0 0 .3-.5h.3a.4.4 0 0 1 .1.3.2.2 0 0 0 .2.2h.5l-.4.4H7c0 .3.1.4.1.5z"/><path fill="#340391" d="M15 8.5c-.8-.3-3-.6-3.7-.9H11a1.7 1.7 0 0 1-2.2.9 1.9 1.9 0 0 0 1.6-1.1 1.1 1.1 0 0 0 0-.8 8.9 8.9 0 0 0-.7-2.8C9.4 3 8.9 2 9.2 1.2s.2-.3.3-.2a9 9 0 0 0 .3 1.6 1.6 1.6 0 0 0 1.1 1A5.4 5.4 0 0 0 9.8.5L9.3.1h-.6a16.9 16.9 0 0 0-3.6 5.5 6.1 6.1 0 0 0-.3 1.3 1.9 1.9 0 0 0 .2.8 1 1 0 0 0 .5.4 3.8 3.8 0 0 0 1.8.3 3.3 3.3 0 0 1-1.7.1 2.1 2.1 0 0 1-1.4-1l-2.9.4-.5.2c-.1.2-.1.4.1.5a19.6 19.6 0 0 0 11.5.8 11.1 11.1 0 0 0 2.5-.5l.2-.2c0-.1 0-.2-.1-.2zM7.1 5.7H7c0 .2.1.3.1.4v.2H7a.6.6 0 0 0-1 0h-.1v-.1l.1-.3a.4.4 0 0 0-.1-.3h-.3s-.1 0 0-.1h.1l.4-.2a.5.5 0 0 0 .3-.5h.3a.4.4 0 0 1 .1.3.2.2 0 0 0 .2.2h.5zm.9-2l-.4.5v-.6c0-.1-.1-.1-.2-.2s-.2 0-.2-.1l.4-.3a.1.1 0 0 0 .1-.1.6.6 0 0 1 .1-.4h.1a.5.5 0 0 1 .2.4h.7a.1.1 0 0 1 .1.1h-.4v.2l.3.3H8zm.7 4.1v-.3l-.2-.2h-.3l.4-.3.2-.3v-.2c0-.1.1-.2.2-.1h.1v.2h.9l-.3.3v.2l.3.4h-.9a.8.8 0 0 1-.4.4c-.1.1-.1 0 0-.1z"/></svg>